<svg xmlns="http://www.w3.org/2000/svg" viewBox="0 0 256 256" role="img" aria-label="Spring Boot">
  <rect width="256" height="256" rx="48" fill="#6DB33F"/>
  <path d="M92 73c16-15 40-23 66-23 24 0 45 7 60 18-9 1-18 4-26 9-12-7-25-10-40-10-22 0-40 7-53 20-12 12-18 28-18 47 0 13 3 26 10 37-13-9-21-24-21-43 0-18 7-37 22-55Z" fill="#fff" opacity="0.95"/>
  <path d="M83 160c0 22 17 38 50 38 48 0 77-25 77-68 0-8-1-14-3-21-4 44-34 72-78 72-23 0-39-9-46-21Z" fill="#fff" opacity="0.95"/>
  <circle cx="176" cy="92" r="9" fill="#fff"/>
</svg>
